<?xml version="1.0" encoding="UTF-8"?>
<svg width="22px" height="20px" viewBox="0 0 22 20" version="1.1" xmlns="http://www.w3.org/2000/svg" xmlns:xlink="http://www.w3.org/1999/xlink">
    <!-- Generator: Sketch 41.2 (35397) - http://www.bohemiancoding.com/sketch -->
    <title>icons</title>
    <desc>Created with Sketch.</desc>
    <defs></defs>
    <g id="Page-1" stroke="none" stroke-width="1" fill="none" fill-rule="evenodd">
        <g id="icons" fill="#FFFFFF">
            <g id="reload">
                <path d="M22,3.4 L22,1.4 C22,0.5 20.9,0.1 20.3,0.7 L18.1,2.9 C16.4,1.7 14.3,1 12,1 C8.2,1 4.8,3 3.1,5.4 C2.7,6.1 3.2,7 4,7 L4,7 C4.3,7 4.6,6.8 4.8,6.5 C6.1,4.8 8.4,4 11,4 C12.8,4 14.5,4.4 15.8,5.2 L13.7,7.3 C13.1,7.9 13.5,9 14.4,9 L16.4,9 L21,9 L21,9 C21.6,9 22,8.6 22,8 L22,3.4 L22,3.4 Z" id="Shape"></path>
                <path d="M18.7,13 L18.7,13 C18.3,13 18,13.2 17.8,13.5 C16.6,15.2 14.3,16 11.7,16 C9.7,16 7.8,15.5 6.6,14.5 L8.4,12.7 C8.9,12.1 8.5,11 7.6,11 L5.6,11 L1,11 C0.4,11 0,11.4 0,12 L0,16.6 L0,18.6 C0,19.5 1.1,19.9 1.7,19.3 L4.1,16.9 C5.8,18.2 8.1,19 10.6,19 C14.5,19 17.8,17 19.5,14.5 C20,13.9 19.5,13 18.7,13 Z" id="Shape"></path>
            </g>
        </g>
    </g>
</svg>